<svg xmlns="http://www.w3.org/2000/svg" width="63.402" height="50.342" viewBox="0 0 63.402 50.342"><defs><style>.a{fill:#118dd5;}</style></defs><g transform="translate(-2.25 -6.472)"><path class="a" d="M14.417,25.035,12.775,23.31,23.317,12.269,33.86,23.31,32.2,25.035l-7.727-8.114V47.606H22.142V16.921Z" transform="translate(10.658 9.209)"/><path class="a" d="M54.23,21.453c0-.169.028-.34.028-.509A16.545,16.545,0,0,0,37.728,4.472a16.351,16.351,0,0,0-14.775,9.383,8.336,8.336,0,0,0-3.792-.906,8.722,8.722,0,0,0-8.335,7.358A12.939,12.939,0,0,0,2.25,32.521,12.731,12.731,0,0,0,14.93,45.285H27.865V43.021H15.045a10.544,10.544,0,0,1-10.5-10.557,10.764,10.764,0,0,1,7.1-10.132l1.189-.411.211-1.246a6.548,6.548,0,0,1,6.213-5.561,6.147,6.147,0,0,1,2.816.678l1.91.962.92-1.938A14.252,14.252,0,0,1,37.7,6.694a14.091,14.091,0,0,1,14.28,14c0,1.882-.028,2.872-.028,2.872l2.152.014c5.179.07,9.282,4.726,9.282,9.949a9.5,9.5,0,0,1-9.411,9.5H39.752v2.264H54.046A11.71,11.71,0,0,0,65.652,33.567c0-6.439-5.024-12.1-11.42-12.114Z" transform="translate(0 2)"/></g></svg>